<svg width="20" height="14" viewBox="0 0 20 14" fill="none" xmlns="http://www.w3.org/2000/svg">
<path d="M0.999869 12H18.9999C19.2547 12.0003 19.4999 12.0979 19.6852 12.2728C19.8706 12.4478 19.9821 12.687 19.997 12.9414C20.012 13.1958 19.9292 13.4464 19.7656 13.6418C19.602 13.8373 19.37 13.9629 19.1169 13.993L18.9999 14H0.999869C0.744989 13.9997 0.499837 13.9021 0.3145 13.7272C0.129164 13.5522 0.0176337 13.313 0.0026966 13.0586C-0.0122405 12.8042 0.0705433 12.5536 0.234134 12.3582C0.397724 12.1627 0.629773 12.0371 0.882869 12.007L0.999869 12H18.9999H0.999869ZM0.999869 6L18.9999 5.998C19.2547 5.99828 19.4999 6.09588 19.6852 6.27085C19.8706 6.44582 19.9821 6.68495 19.997 6.93939C20.012 7.19384 19.9292 7.44438 19.7656 7.63983C19.602 7.83529 19.37 7.9609 19.1169 7.991L18.9999 7.998L0.999869 8C0.744989 7.99972 0.499837 7.90212 0.3145 7.72715C0.129164 7.55218 0.0176337 7.31305 0.0026966 7.05861C-0.0122405 6.80416 0.0705433 6.55362 0.234134 6.35817C0.397724 6.16271 0.629773 6.0371 0.882869 6.007L0.999869 6L18.9999 5.998L0.999869 6ZM0.999869 0H18.9999C19.2547 0.000282707 19.4999 0.0978789 19.6852 0.272848C19.8706 0.447817 19.9821 0.686953 19.997 0.941395C20.012 1.19584 19.9292 1.44638 19.7656 1.64183C19.602 1.83729 19.37 1.9629 19.1169 1.993L18.9999 2H0.999869C0.744989 1.99972 0.499837 1.90212 0.3145 1.72715C0.129164 1.55218 0.0176337 1.31305 0.0026966 1.05861C-0.0122405 0.804163 0.0705433 0.553621 0.234134 0.358168C0.397724 0.162715 0.629773 0.0371036 0.882869 0.00699997L0.999869 0H18.9999H0.999869Z" fill="white"/>
</svg>
