<?xml version="1.0" encoding="UTF-8" standalone="no"?>
<svg
   xmlns:dc="http://purl.org/dc/elements/1.1/"
   xmlns:cc="http://creativecommons.org/ns#"
   xmlns:rdf="http://www.w3.org/1999/02/22-rdf-syntax-ns#"
   xmlns:svg="http://www.w3.org/2000/svg"
   xmlns="http://www.w3.org/2000/svg"
   xmlns:sodipodi="http://sodipodi.sourceforge.net/DTD/sodipodi-0.dtd"
   xmlns:inkscape="http://www.inkscape.org/namespaces/inkscape"
   width="14.358052mm"
   height="18.235538mm"
   viewBox="0 0 14.358053 18.23554"
   version="1.1"
   id="svg8037"
   inkscape:version="1.0.1 (1.0.1+r73)"
   sodipodi:docname="design_22.svg">
  <defs
     id="defs8031" />
  <sodipodi:namedview
     id="base"
     pagecolor="#ffffff"
     bordercolor="#666666"
     borderopacity="1.0"
     inkscape:pageopacity="0.0"
     inkscape:pageshadow="2"
     inkscape:zoom="1.33"
     inkscape:cx="23.211558"
     inkscape:cy="45.248712"
     inkscape:document-units="mm"
     inkscape:current-layer="layer1"
     inkscape:document-rotation="0"
     showgrid="false"
     fit-margin-top="1"
     fit-margin-right="1"
     fit-margin-bottom="1"
     fit-margin-left="1"
     inkscape:window-width="1853"
     inkscape:window-height="1025"
     inkscape:window-x="67"
     inkscape:window-y="27"
     inkscape:window-maximized="1" />
  <metadata
     id="metadata8034">
    <rdf:RDF>
      <cc:Work
         rdf:about="">
        <dc:format>image/svg+xml</dc:format>
        <dc:type
           rdf:resource="http://purl.org/dc/dcmitype/StillImage" />
        <dc:title></dc:title>
      </cc:Work>
    </rdf:RDF>
  </metadata>
  <g
     inkscape:label="Capa 1"
     inkscape:groupmode="layer"
     id="layer1"
     transform="translate(-99.691954,-64.578069)">
    <g
       id="g14931"
       transform="matrix(0.35277777,0,0,-0.35277777,-73.680594,122.15745)">
      <g
         id="g1840"
         transform="translate(529.2581,149.2155)">
        <path
           d="M 0,0 C 0.031,0 0.057,0.025 0.057,0.057 V 2.525 C 0.057,2.556 0.031,2.582 0,2.582 h -0.184 v 3.053 c 0,1.406 -1.145,2.55 -2.549,2.55 h -0.714 c 10e-4,0.009 0.009,0.015 0.009,0.024 v 0.312 c 0,0.149 -0.12,0.269 -0.268,0.269 h -3.513 c -0.149,0 -0.269,-0.12 -0.269,-0.269 V 8.209 c 0,-0.009 0.009,-0.015 0.01,-0.024 h -22.398 c -1.405,0 -2.549,-1.144 -2.549,-2.55 v -37.94 c 0,-1.406 1.144,-2.55 2.549,-2.55 h 27.143 c 1.404,0 2.549,1.144 2.549,2.55 v 28.707 h 0.173 c 0.037,0 0.068,0.03 0.068,0.067 v 2.447 c 0,0.037 -0.031,0.067 -0.068,0.067 H -0.184 V 0 Z"
           style="fill:#dadada;fill-opacity:1;fill-rule:nonzero;stroke:none"
           id="path1842" />
      </g>
      <g
         id="g1844"
         transform="translate(524.9495,117.1359)">
        <path
           d="m 0,0 h -29.353 c -0.578,0 -1.046,0.468 -1.046,1.046 v 40.152 c 0,0.577 0.468,1.046 1.046,1.046 H 0 c 0.578,0 1.046,-0.469 1.046,-1.046 V 1.046 C 1.046,0.468 0.578,0 0,0"
           style="fill:#dadada;fill-opacity:1;fill-rule:nonzero;stroke:none"
           id="path1846" />
      </g>
      <g
         id="g1848"
         transform="translate(517.4524,116.8703)">
        <path
           d="m 0,0 h -20.75 c -1.333,0 -2.418,1.085 -2.418,2.417 v 37.94 c 0,1.333 1.085,2.418 2.418,2.418 h 3.653 c 0.146,0 0.265,-0.119 0.265,-0.266 0,-0.146 -0.119,-0.265 -0.265,-0.265 h -3.653 c -1.041,0 -1.887,-0.846 -1.887,-1.887 V 2.417 c 0,-1.04 0.846,-1.887 1.887,-1.887 L 0,0.53 C 0.146,0.53 0.266,0.411 0.266,0.265 0.266,0.119 0.146,0 0,0"
           style="fill:#41404d;fill-opacity:1;fill-rule:nonzero;stroke:none"
           id="path1850" />
      </g>
      <g
         id="g1852"
         transform="translate(523.8435,116.8703)">
        <path
           d="m 0,0 h -2.343 c -0.146,0 -0.265,0.119 -0.265,0.265 0,0.146 0.119,0.265 0.265,0.265 H 0 c 1.041,0 1.887,0.847 1.887,1.887 v 37.94 c 0,1.041 -0.846,1.887 -1.887,1.887 h -17.331 c -0.147,0 -0.266,0.119 -0.266,0.265 0,0.147 0.119,0.266 0.266,0.266 H 0 c 1.333,0 2.418,-1.085 2.418,-2.418 V 2.417 C 2.418,1.085 1.333,0 0,0"
           style="fill:#41404d;fill-opacity:1;fill-rule:nonzero;stroke:none"
           id="path1854" />
      </g>
      <g
         id="g1856"
         transform="translate(524.1301,118.8605)">
        <path
           d="m 0,0 h -27.526 c -0.132,0 -0.239,0.107 -0.239,0.24 v 38.315 c 0,0.132 0.107,0.239 0.239,0.239 H 0 c 0.132,0 0.239,-0.107 0.239,-0.239 V 0.24 C 0.239,0.107 0.132,0 0,0"
           style="fill:#ffffff;fill-opacity:1;fill-rule:nonzero;stroke:none"
           id="path1858" />
      </g>
      <g
         id="g1860"
         transform="translate(496.8571,157.3893)">
        <path
           d="m 0,0 c -0.125,0 -0.227,-0.102 -0.227,-0.227 v -37.809 c 0,-0.126 0.102,-0.227 0.227,-0.227 h 27.02 c 0.125,0 0.228,0.101 0.228,0.227 V -0.227 C 27.248,-0.102 27.145,0 27.02,0 Z M 27.02,-38.794 H 0 c -0.418,0 -0.758,0.34 -0.758,0.758 v 37.809 c 0,0.418 0.34,0.758 0.758,0.758 h 27.02 c 0.418,0 0.758,-0.34 0.758,-0.758 v -37.809 c 0,-0.418 -0.34,-0.758 -0.758,-0.758"
           style="fill:#41404d;fill-opacity:1;fill-rule:nonzero;stroke:none"
           id="path1862" />
      </g>
      <g
         id="g1864"
         transform="translate(519.2205,160.3825)">
        <path
           d="m 0,0 h 3.789 c 0.072,0 0.13,-0.058 0.13,-0.13 v -0.588 c 0,-0.073 -0.058,-0.131 -0.13,-0.131 H 0 c -0.072,0 -0.131,0.058 -0.131,0.131 V -0.13 C -0.131,-0.058 -0.072,0 0,0"
           style="fill:#41404d;fill-opacity:1;fill-rule:nonzero;stroke:none"
           id="path1866" />
      </g>
      <g
         id="g1868"
         transform="translate(526.634,154.1467)">
        <path
           d="m 0,0 v -2.843 c 0,-0.015 -0.012,-0.028 -0.027,-0.028 h -0.458 c -0.015,0 -0.028,0.013 -0.028,0.028 V 0 c 0,0.015 0.013,0.027 0.028,0.027 h 0.458 C -0.012,0.027 0,0.015 0,0"
           style="fill:#41404d;fill-opacity:1;fill-rule:nonzero;stroke:none"
           id="path1870" />
      </g>
      <g
         id="g1872"
         transform="translate(526.634,150.8776)">
        <path
           d="M 0,0 V -2.851 C 0,-2.869 -0.015,-2.883 -0.033,-2.883 H -0.48 c -0.018,0 -0.033,0.014 -0.033,0.032 V 0 c 0,0.018 0.015,0.033 0.033,0.033 h 0.447 C -0.015,0.033 0,0.018 0,0"
           style="fill:#41404d;fill-opacity:1;fill-rule:nonzero;stroke:none"
           id="path1874" />
      </g>
      <path
         d="m 496.63,123.361 h 27.475 v 7.654 H 496.63 Z m 27.74,-0.531 h -28.006 c -0.146,0 -0.265,0.119 -0.265,0.265 v 8.185 c 0,0.146 0.119,0.265 0.265,0.265 h 28.006 c 0.146,0 0.265,-0.119 0.265,-0.265 v -8.185 c 0,-0.146 -0.119,-0.265 -0.265,-0.265"
         style="fill:#41404d;fill-opacity:1;fill-rule:nonzero;stroke:none"
         id="path1876" />
      <path
         d="m 505.063,136.685 h -4.708 v 4.708 h 4.708 z"
         style="fill:#dadada;fill-opacity:1;fill-rule:nonzero;stroke:none"
         id="path1878" />
      <path
         d="m 500.621,136.951 h 4.177 v 4.176 h -4.177 z m 4.443,-0.531 h -4.708 c -0.147,0 -0.266,0.119 -0.266,0.265 v 4.707 c 0,0.147 0.119,0.266 0.266,0.266 h 4.708 c 0.146,0 0.265,-0.119 0.265,-0.266 v -4.707 c 0,-0.146 -0.119,-0.265 -0.265,-0.265"
         style="fill:#41404d;fill-opacity:1;fill-rule:nonzero;stroke:none"
         id="path1880" />
      <path
         d="m 512.627,136.685 h -4.708 v 4.708 h 4.708 z"
         style="fill:#dadada;fill-opacity:1;fill-rule:nonzero;stroke:none"
         id="path1882" />
      <path
         d="m 508.184,136.951 h 4.177 v 4.176 h -4.177 z m 4.443,-0.531 h -4.708 c -0.147,0 -0.266,0.119 -0.266,0.265 v 4.707 c 0,0.147 0.119,0.266 0.266,0.266 h 4.708 c 0.146,0 0.265,-0.119 0.265,-0.266 v -4.707 c 0,-0.146 -0.119,-0.265 -0.265,-0.265"
         style="fill:#41404d;fill-opacity:1;fill-rule:nonzero;stroke:none"
         id="path1884" />
      <path
         d="m 520.19,136.685 h -4.708 v 4.708 h 4.708 z"
         style="fill:#dadada;fill-opacity:1;fill-rule:nonzero;stroke:none"
         id="path1886" />
      <path
         d="m 515.748,136.951 h 4.177 v 4.176 h -4.177 z m 4.443,-0.531 h -4.708 c -0.146,0 -0.265,0.119 -0.265,0.265 v 4.707 c 0,0.147 0.119,0.266 0.265,0.266 h 4.708 c 0.146,0 0.265,-0.119 0.265,-0.266 v -4.707 c 0,-0.146 -0.119,-0.265 -0.265,-0.265"
         style="fill:#41404d;fill-opacity:1;fill-rule:nonzero;stroke:none"
         id="path1888" />
      <g
         id="g1890"
         transform="translate(504.2893,134.7961)">
        <path
           d="m 0,0 h -3.16 c -0.146,0 -0.265,0.119 -0.265,0.266 0,0.146 0.119,0.265 0.265,0.265 H 0 C 0.146,0.531 0.265,0.412 0.265,0.266 0.265,0.119 0.146,0 0,0"
           style="fill:#41404d;fill-opacity:1;fill-rule:nonzero;stroke:none"
           id="path1892" />
      </g>
      <g
         id="g1894"
         transform="translate(511.8523,134.7961)">
        <path
           d="m 0,0 h -3.16 c -0.146,0 -0.265,0.119 -0.265,0.266 0,0.146 0.119,0.265 0.265,0.265 H 0 C 0.146,0.531 0.265,0.412 0.265,0.266 0.265,0.119 0.146,0 0,0"
           style="fill:#41404d;fill-opacity:1;fill-rule:nonzero;stroke:none"
           id="path1896" />
      </g>
      <g
         id="g1898"
         transform="translate(519.4163,134.7961)">
        <path
           d="m 0,0 h -3.16 c -0.146,0 -0.265,0.119 -0.265,0.266 0,0.146 0.119,0.265 0.265,0.265 H 0 C 0.146,0.531 0.266,0.412 0.266,0.266 0.266,0.119 0.146,0 0,0"
           style="fill:#41404d;fill-opacity:1;fill-rule:nonzero;stroke:none"
           id="path1900" />
      </g>
      <path
         d="m 524.369,145.101 h -28.004 v 10.62 h 28.004 z"
         style="fill:#f4c151;fill-opacity:1;fill-rule:nonzero;stroke:none"
         id="path1902" />
      <path
         d="m 496.63,145.366 h 27.475 v 10.09 H 496.63 Z m 27.74,-0.53 h -28.006 c -0.146,0 -0.265,0.119 -0.265,0.265 v 10.62 c 0,0.147 0.119,0.266 0.265,0.266 h 28.006 c 0.146,0 0.265,-0.119 0.265,-0.266 v -10.62 c 0,-0.146 -0.119,-0.265 -0.265,-0.265"
         style="fill:#41404d;fill-opacity:1;fill-rule:nonzero;stroke:none"
         id="path1904" />
      <g
         id="g1906"
         transform="translate(517.115,151.1833)">
        <path
           d="m 0,0 h -13.495 c -0.146,0 -0.265,0.119 -0.265,0.266 0,0.146 0.119,0.265 0.265,0.265 H 0 C 0.146,0.531 0.265,0.412 0.265,0.266 0.265,0.119 0.146,0 0,0"
           style="fill:#41404d;fill-opacity:1;fill-rule:nonzero;stroke:none"
           id="path1908" />
      </g>
      <g
         id="g1910"
         transform="translate(513.8855,149.1086)">
        <path
           d="m 0,0 h -7.038 c -0.146,0 -0.265,0.119 -0.265,0.266 0,0.146 0.119,0.265 0.265,0.265 H 0 C 0.146,0.531 0.266,0.412 0.266,0.266 0.266,0.119 0.146,0 0,0"
           style="fill:#41404d;fill-opacity:1;fill-rule:nonzero;stroke:none"
           id="path1912" />
      </g>
      <path
         d="m 496.365,123.095 h 28.004 v 8.185 h -28.004 z"
         style="fill:#dadada;fill-opacity:1;fill-rule:nonzero;stroke:none"
         id="path1914" />
      <path
         d="m 496.63,123.361 h 27.475 v 7.654 H 496.63 Z m 27.74,-0.531 h -28.006 c -0.146,0 -0.265,0.119 -0.265,0.265 v 8.185 c 0,0.146 0.119,0.265 0.265,0.265 h 28.006 c 0.146,0 0.265,-0.119 0.265,-0.265 v -8.185 c 0,-0.146 -0.119,-0.265 -0.265,-0.265"
         style="fill:#41404d;fill-opacity:1;fill-rule:nonzero;stroke:none"
         id="path1916" />
      <g
         id="g1918"
         transform="translate(505.0637,128.6384)">
        <path
           d="m 0,0 h -4.708 c -0.146,0 -0.266,0.119 -0.266,0.266 0,0.146 0.12,0.265 0.266,0.265 H 0 C 0.146,0.531 0.265,0.412 0.265,0.266 0.265,0.119 0.146,0 0,0"
           style="fill:#41404d;fill-opacity:1;fill-rule:nonzero;stroke:none"
           id="path1920" />
      </g>
      <g
         id="g1922"
         transform="translate(505.0637,126.884)">
        <path
           d="m 0,0 h -4.708 c -0.146,0 -0.266,0.119 -0.266,0.265 0,0.147 0.12,0.266 0.266,0.266 H 0 C 0.146,0.531 0.265,0.412 0.265,0.265 0.265,0.119 0.146,0 0,0"
           style="fill:#41404d;fill-opacity:1;fill-rule:nonzero;stroke:none"
           id="path1924" />
      </g>
      <g
         id="g1926"
         transform="translate(502.7092,125.1296)">
        <path
           d="m 0,0 h -2.354 c -0.146,0 -0.265,0.119 -0.265,0.265 0,0.147 0.119,0.266 0.265,0.266 H 0 C 0.146,0.531 0.265,0.412 0.265,0.265 0.265,0.119 0.146,0 0,0"
           style="fill:#41404d;fill-opacity:1;fill-rule:nonzero;stroke:none"
           id="path1928" />
      </g>
      <g
         id="g1930"
         transform="translate(512.6267,128.6384)">
        <path
           d="m 0,0 h -4.708 c -0.147,0 -0.266,0.119 -0.266,0.266 0,0.146 0.119,0.265 0.266,0.265 H 0 C 0.146,0.531 0.265,0.412 0.265,0.266 0.265,0.119 0.146,0 0,0"
           style="fill:#41404d;fill-opacity:1;fill-rule:nonzero;stroke:none"
           id="path1932" />
      </g>
      <g
         id="g1934"
         transform="translate(512.6267,126.884)">
        <path
           d="m 0,0 h -4.708 c -0.147,0 -0.266,0.119 -0.266,0.265 0,0.147 0.119,0.266 0.266,0.266 H 0 C 0.146,0.531 0.265,0.412 0.265,0.265 0.265,0.119 0.146,0 0,0"
           style="fill:#41404d;fill-opacity:1;fill-rule:nonzero;stroke:none"
           id="path1936" />
      </g>
      <g
         id="g1938"
         transform="translate(510.2732,125.1296)">
        <path
           d="m 0,0 h -2.354 c -0.147,0 -0.266,0.119 -0.266,0.265 0,0.147 0.119,0.266 0.266,0.266 H 0 C 0.146,0.531 0.265,0.412 0.265,0.265 0.265,0.119 0.146,0 0,0"
           style="fill:#41404d;fill-opacity:1;fill-rule:nonzero;stroke:none"
           id="path1940" />
      </g>
      <g
         id="g1942"
         transform="translate(520.1907,128.6384)">
        <path
           d="m 0,0 h -4.708 c -0.146,0 -0.265,0.119 -0.265,0.266 0,0.146 0.119,0.265 0.265,0.265 H 0 C 0.146,0.531 0.265,0.412 0.265,0.266 0.265,0.119 0.146,0 0,0"
           style="fill:#41404d;fill-opacity:1;fill-rule:nonzero;stroke:none"
           id="path1944" />
      </g>
      <g
         id="g1946"
         transform="translate(520.1907,126.884)">
        <path
           d="m 0,0 h -4.708 c -0.146,0 -0.265,0.119 -0.265,0.265 0,0.147 0.119,0.266 0.265,0.266 H 0 C 0.146,0.531 0.265,0.412 0.265,0.265 0.265,0.119 0.146,0 0,0"
           style="fill:#41404d;fill-opacity:1;fill-rule:nonzero;stroke:none"
           id="path1948" />
      </g>
      <g
         id="g1950"
         transform="translate(517.8362,125.1296)">
        <path
           d="m 0,0 h -2.354 c -0.146,0 -0.265,0.119 -0.265,0.265 0,0.147 0.119,0.266 0.265,0.266 H 0 C 0.146,0.531 0.265,0.412 0.265,0.265 0.265,0.119 0.146,0 0,0"
           style="fill:#41404d;fill-opacity:1;fill-rule:nonzero;stroke:none"
           id="path1952" />
      </g>
      <path
         d="m 507.919,121.508 h 14.505 v -2.647 h -14.505 z"
         style="fill:#f4c151;fill-opacity:1;fill-rule:nonzero;stroke:none"
         id="path1954" />
      <path
         d="m 508.184,119.126 h 13.975 v 2.116 h -13.975 z m 14.24,-0.531 h -14.505 c -0.147,0 -0.266,0.12 -0.266,0.266 v 2.647 c 0,0.146 0.119,0.265 0.266,0.265 h 14.505 c 0.146,0 0.265,-0.119 0.265,-0.265 v -2.647 c 0,-0.146 -0.119,-0.266 -0.265,-0.266"
         style="fill:#41404d;fill-opacity:1;fill-rule:nonzero;stroke:none"
         id="path1956" />
      <path
         d="m 500.355,121.508 h 4.708 v -2.647 h -4.708 z"
         style="fill:#f4c151;fill-opacity:1;fill-rule:nonzero;stroke:none"
         id="path1958" />
      <path
         d="m 500.621,119.126 h 4.177 v 2.116 h -4.177 z m 4.443,-0.531 h -4.708 c -0.147,0 -0.266,0.12 -0.266,0.266 v 2.647 c 0,0.146 0.119,0.265 0.266,0.265 h 4.708 c 0.146,0 0.265,-0.119 0.265,-0.265 v -2.647 c 0,-0.146 -0.119,-0.266 -0.265,-0.266"
         style="fill:#41404d;fill-opacity:1;fill-rule:nonzero;stroke:none"
         id="path1960" />
    </g>
  </g>
</svg>
