<svg width="13" height="12" viewBox="0 0 13 12" fill="none" xmlns="http://www.w3.org/2000/svg">
<path d="M0.50015 12H11.5036C11.6363 12 11.7635 11.9474 11.8573 11.8536C11.9511 11.7598 12.0038 11.6326 12.0038 11.5V2.5H0V11.5C0 11.6326 0.052695 11.7598 0.146492 11.8536C0.24029 11.9474 0.367508 12 0.50015 12Z" fill="#40495A"/>
<path d="M11.5036 0H0.50015C0.367508 0 0.24029 0.0526786 0.146492 0.146447C0.052695 0.240217 0 0.367392 0 0.500011V2.50001H12.0038V0.500011C12.0038 0.367392 11.9511 0.240217 11.8573 0.146447C11.7635 0.0526786 11.6363 0 11.5036 0Z" fill="#EAE8E8"/>
<path d="M2.50146 1H1.00098V1.50001H2.50146V1Z" fill="#D7D4D4"/>
<path d="M11.0034 1H3.50098V1.50001H11.0034V1Z" fill="#D7D4D4"/>
<path d="M2.0013 10H1.00098V10.5H2.0013V10Z" fill="#748191"/>
<path d="M2.0013 8H1.00098V8.50001H2.0013V8Z" fill="#748191"/>
<path d="M2.0013 9H1.00098V9.50001H2.0013V9Z" fill="#748191"/>
<path d="M2.0013 6H1.00098V6.49999H2.0013V6Z" fill="#748191"/>
<path d="M2.0013 7H1.00098V7.50001H2.0013V7Z" fill="#748191"/>
<path d="M2.0013 4H1.00098V4.49999H2.0013V4Z" fill="#748191"/>
<path d="M2.0013 5H1.00098V5.49999H2.0013V5Z" fill="#748191"/>
<path d="M3.50122 7H2.75098V7.50001H3.50122V7Z" fill="#FFCD02"/>
<path d="M6.50176 7H4.00098V7.50001H6.50176V7Z" fill="#2ECC71"/>
<path d="M8.00227 7H7.00195V7.50001H8.00227V7Z" fill="#FF6E40"/>
<path d="M10.0034 7H8.50293V7.50001H10.0034V7Z" fill="#26C6DA"/>
<path d="M4.25145 6H2.75098V6.49999H4.25145V6Z" fill="#2ECC71"/>
<path d="M7.25274 6H4.75195V6.49999H7.25274V6Z" fill="#26C6DA"/>
<path d="M9.25242 6H7.75195V6.49999H9.25242V6Z" fill="#FF6E40"/>
<path d="M4.25145 8H2.75098V8.50001H4.25145V8Z" fill="#FF6E40"/>
<path d="M5.5022 8H4.75195V8.50001H5.5022V8Z" fill="#26C6DA"/>
<path d="M7.00227 8H6.00195V8.50001H7.00227V8Z" fill="#FFCD02"/>
<path d="M9.50357 8H7.50293V8.50001H9.50357V8Z" fill="#2ECC71"/>
<path d="M10.5041 8H10.0039V8.50001H10.5041V8Z" fill="#FFCD02"/>
<path d="M3.25113 5H2.75098V5.49999H3.25113V5Z" fill="#26C6DA"/>
<path d="M7.75225 5H3.75098V5.49999H7.75225V5Z" fill="#FFCD02"/>
<path d="M10.5036 5H8.25293V5.49999H10.5036V5Z" fill="#2ECC71"/>
<path d="M3.7513 4H2.75098V4.49999H3.7513V4Z" fill="#FF6E40"/>
<path d="M6.25161 4H4.25098V4.49999H6.25161V4Z" fill="#FF6E40"/>
<path d="M7.5022 4H6.75195V4.49999H7.5022V4Z" fill="#FFCD02"/>
<path d="M11.0039 4H8.00293V4.49999H11.0039V4Z" fill="#26C6DA"/>
<path d="M6.50216 9H2.75098V9.50001H6.50216V9Z" fill="#FFCD02"/>
<path d="M9.00259 9H7.00195V9.50001H9.00259V9Z" fill="#26C6DA"/>
<path d="M11.0034 9H9.50293V9.50001H11.0034V9Z" fill="#FF6E40"/>
<path d="M3.7513 10H2.75098V10.5H3.7513V10Z" fill="#26C6DA"/>
<path d="M5.75146 10H4.25098V10.5H5.75146V10Z" fill="#2ECC71"/>
<path d="M8.50268 10H6.25195V10.5H8.50268V10Z" fill="#FF6E40"/>
<path d="M10.0032 10H9.00293V10.5H10.0032V10Z" fill="#FFCD02"/>
</svg>
