<svg width="264" height="88" viewBox="0 0 264 88" fill="none" xmlns="http://www.w3.org/2000/svg">
<path d="M3.9709 24.7695V61H1.38301V24.7695H3.9709ZM9.20879 35.1211H11.7967V38.6147C11.9347 38.4595 12.0814 38.3042 12.2366 38.1489C14.2552 36.1304 16.6964 35.1211 19.5604 35.1211C22.4243 35.1211 24.8655 36.1304 26.8841 38.1489C28.9026 40.1675 29.9119 42.6087 29.9119 45.4727V61H27.324V45.4727C27.324 43.3333 26.5649 41.5046 25.0467 39.9863C23.5285 38.4681 21.6997 37.709 19.5604 37.709C17.421 37.709 15.5923 38.4681 14.074 39.9863C12.5558 41.5046 11.7967 43.3333 11.7967 45.4727V61H9.20879V35.1211ZM35.1498 35.1211H37.7377V38.6147C37.8757 38.4595 38.0224 38.3042 38.1776 38.1489C40.1962 36.1304 42.6374 35.1211 45.5014 35.1211C48.3653 35.1211 50.8065 36.1304 52.8251 38.1489C54.8437 40.1675 55.8529 42.6087 55.8529 45.4727V61H53.265V45.4727C53.265 43.3333 52.5059 41.5046 50.9877 39.9863C49.4695 38.4681 47.6407 37.709 45.5014 37.709C43.362 37.709 41.5333 38.4681 40.015 39.9863C38.4968 41.5046 37.7377 43.3333 37.7377 45.4727V61H35.1498V35.1211ZM74.0303 61C70.459 61 67.4053 59.7406 64.8691 57.2217C62.3503 54.6855 61.0908 51.6318 61.0908 48.0605C61.0908 44.4893 62.3503 41.4442 64.8691 38.9253C67.4053 36.3892 70.459 35.1211 74.0303 35.1211C77.6016 35.1211 80.6467 36.3892 83.1655 38.9253C85.7017 41.4442 86.9697 44.4893 86.9697 48.0605C86.9697 51.6318 85.7017 54.6855 83.1655 57.2217C80.6467 59.7406 77.6016 61 74.0303 61ZM74.0303 37.709C71.1663 37.709 68.7251 38.7183 66.7065 40.7368C64.688 42.7554 63.6787 45.1966 63.6787 48.0605C63.6787 50.9245 64.688 53.3657 66.7065 55.3843C68.7251 57.4028 71.1663 58.4121 74.0303 58.4121C76.8942 58.4121 79.3355 57.4028 81.354 55.3843C83.3726 53.3657 84.3818 50.9245 84.3818 48.0605C84.3818 45.1966 83.3726 42.7554 81.354 40.7368C79.3355 38.7183 76.8942 37.709 74.0303 37.709ZM95.0543 35.1211L104.785 57.8428L114.515 35.1211H117.336L106.234 61H103.31L92.2076 35.1211H95.0543ZM136.264 37.709C133.4 37.709 130.959 38.7183 128.94 40.7368C126.922 42.7554 125.912 45.1966 125.912 48.0605C125.912 50.9245 126.922 53.3657 128.94 55.3843C130.959 57.4028 133.4 58.4121 136.264 58.4121C139.128 58.4121 141.569 57.4028 143.588 55.3843C145.606 53.3657 146.615 50.9245 146.615 48.0605C146.615 45.1966 145.606 42.7554 143.588 40.7368C141.569 38.7183 139.128 37.709 136.264 37.709ZM146.615 54.5303C146.253 55.876 145.856 56.7645 145.425 57.1958C142.889 59.7319 139.835 61 136.264 61C132.693 61 129.639 59.7406 127.103 57.2217C124.584 54.6855 123.324 51.6318 123.324 48.0605C123.324 44.4893 124.584 41.4442 127.103 38.9253C129.639 36.3892 132.693 35.1211 136.264 35.1211C139.835 35.1211 142.889 36.3805 145.425 38.8994C145.856 39.348 146.253 40.2451 146.615 41.5908V35.1211H149.203V61H146.615V54.5303ZM154.441 61H157.029V58.4121H154.441V61Z" fill="white"/>
<path d="M3.9709 24.7695H4.9709V23.7695H3.9709V24.7695ZM3.9709 61V62H4.9709V61H3.9709ZM1.38301 61H0.383011V62H1.38301V61ZM1.38301 24.7695V23.7695H0.383011V24.7695H1.38301ZM2.9709 24.7695V61H4.9709V24.7695H2.9709ZM3.9709 60H1.38301V62H3.9709V60ZM2.38301 61V24.7695H0.383011V61H2.38301ZM1.38301 25.7695H3.9709V23.7695H1.38301V25.7695ZM9.20879 35.1211V34.1211H8.20879V35.1211H9.20879ZM11.7967 35.1211H12.7967V34.1211H11.7967V35.1211ZM11.7967 38.6147H10.7967V41.2449L12.5441 39.2791L11.7967 38.6147ZM29.9119 61V62H30.9119V61H29.9119ZM27.324 61H26.324V62H27.324V61ZM11.7967 61V62H12.7967V61H11.7967ZM9.20879 61H8.20879V62H9.20879V61ZM9.20879 36.1211H11.7967V34.1211H9.20879V36.1211ZM10.7967 35.1211V38.6147H12.7967V35.1211H10.7967ZM12.5441 39.2791C12.6684 39.1393 12.8015 38.9982 12.9437 38.856L11.5295 37.4418C11.3612 37.6102 11.201 37.7797 11.0493 37.9504L12.5441 39.2791ZM12.9437 38.856C14.7741 37.0257 16.9607 36.1211 19.5604 36.1211V34.1211C16.4322 34.1211 13.7363 35.235 11.5295 37.4418L12.9437 38.856ZM19.5604 36.1211C22.16 36.1211 24.3466 37.0257 26.177 38.856L27.5912 37.4418C25.3844 35.235 22.6885 34.1211 19.5604 34.1211V36.1211ZM26.177 38.856C28.0073 40.6864 28.9119 42.873 28.9119 45.4727H30.9119C30.9119 42.3445 29.798 39.6486 27.5912 37.4418L26.177 38.856ZM28.9119 45.4727V61H30.9119V45.4727H28.9119ZM29.9119 60H27.324V62H29.9119V60ZM28.324 61V45.4727H26.324V61H28.324ZM28.324 45.4727C28.324 43.067 27.4588 40.9842 25.7538 39.2792L24.3396 40.6934C25.671 42.0249 26.324 43.5996 26.324 45.4727H28.324ZM25.7538 39.2792C24.0488 37.5742 21.966 36.709 19.5604 36.709V38.709C21.4334 38.709 23.0081 39.362 24.3396 40.6934L25.7538 39.2792ZM19.5604 36.709C17.1547 36.709 15.0719 37.5742 13.3669 39.2792L14.7811 40.6934C16.1126 39.362 17.6873 38.709 19.5604 38.709V36.709ZM13.3669 39.2792C11.6619 40.9842 10.7967 43.067 10.7967 45.4727H12.7967C12.7967 43.5996 13.4497 42.0249 14.7811 40.6934L13.3669 39.2792ZM10.7967 45.4727V61H12.7967V45.4727H10.7967ZM11.7967 60H9.20879V62H11.7967V60ZM10.2088 61V35.1211H8.20879V61H10.2088ZM35.1498 35.1211V34.1211H34.1498V35.1211H35.1498ZM37.7377 35.1211H38.7377V34.1211H37.7377V35.1211ZM37.7377 38.6147H36.7377V41.2449L38.4851 39.2791L37.7377 38.6147ZM55.8529 61V62H56.8529V61H55.8529ZM53.265 61H52.265V62H53.265V61ZM37.7377 61V62H38.7377V61H37.7377ZM35.1498 61H34.1498V62H35.1498V61ZM35.1498 36.1211H37.7377V34.1211H35.1498V36.1211ZM36.7377 35.1211V38.6147H38.7377V35.1211H36.7377ZM38.4851 39.2791C38.6094 39.1393 38.7425 38.9982 38.8847 38.856L37.4705 37.4418C37.3022 37.6102 37.142 37.7797 36.9903 37.9504L38.4851 39.2791ZM38.8847 38.856C40.7151 37.0257 42.9017 36.1211 45.5014 36.1211V34.1211C42.3732 34.1211 39.6773 35.235 37.4705 37.4418L38.8847 38.856ZM45.5014 36.1211C48.1011 36.1211 50.2877 37.0257 52.118 38.856L53.5322 37.4418C51.3254 35.235 48.6295 34.1211 45.5014 34.1211V36.1211ZM52.118 38.856C53.9483 40.6864 54.8529 42.873 54.8529 45.4727H56.8529C56.8529 42.3445 55.739 39.6486 53.5322 37.4418L52.118 38.856ZM54.8529 45.4727V61H56.8529V45.4727H54.8529ZM55.8529 60H53.265V62H55.8529V60ZM54.265 61V45.4727H52.265V61H54.265ZM54.265 45.4727C54.265 43.067 53.3998 40.9842 51.6948 39.2792L50.2806 40.6934C51.6121 42.0249 52.265 43.5996 52.265 45.4727H54.265ZM51.6948 39.2792C49.9898 37.5742 47.907 36.709 45.5014 36.709V38.709C47.3744 38.709 48.9491 39.362 50.2806 40.6934L51.6948 39.2792ZM45.5014 36.709C43.0957 36.709 41.0129 37.5742 39.3079 39.2792L40.7221 40.6934C42.0536 39.362 43.6283 38.709 45.5014 38.709V36.709ZM39.3079 39.2792C37.6029 40.9842 36.7377 43.067 36.7377 45.4727H38.7377C38.7377 43.5996 39.3907 42.0249 40.7221 40.6934L39.3079 39.2792ZM36.7377 45.4727V61H38.7377V45.4727H36.7377ZM37.7377 60H35.1498V62H37.7377V60ZM36.1498 61V35.1211H34.1498V61H36.1498ZM64.8691 57.2217L64.1596 57.9264L64.1645 57.9312L64.8691 57.2217ZM64.8691 38.9253L64.162 38.2182L64.8691 38.9253ZM83.1655 38.9253L82.456 39.63L82.4608 39.6348L83.1655 38.9253ZM74.0303 60C70.7233 60 67.9228 58.8452 65.5738 56.5122L64.1645 57.9312C66.8877 60.636 70.1947 62 74.0303 62V60ZM65.5787 56.517C63.2457 54.168 62.0908 51.3675 62.0908 48.0605H60.0908C60.0908 51.8961 61.4549 55.2031 64.1596 57.9264L65.5787 56.517ZM62.0908 48.0605C62.0908 44.7537 63.2454 41.9632 65.5763 39.6324L64.162 38.2182C61.4551 40.9251 60.0908 44.2248 60.0908 48.0605H62.0908ZM65.5763 39.6324C67.9258 37.2829 70.7255 36.1211 74.0303 36.1211V34.1211C70.1925 34.1211 66.8848 35.4954 64.162 38.2182L65.5763 39.6324ZM74.0303 36.1211C77.3349 36.1211 80.1247 37.2827 82.456 39.63L83.875 38.2206C81.1686 35.4956 77.8682 34.1211 74.0303 34.1211V36.1211ZM82.4608 39.6348C84.8081 41.9661 85.9697 44.7559 85.9697 48.0605H87.9697C87.9697 44.2226 86.5952 40.9222 83.8702 38.2158L82.4608 39.6348ZM85.9697 48.0605C85.9697 51.3653 84.8079 54.1651 82.4584 56.5146L83.8726 57.9288C86.5954 55.206 87.9697 51.8983 87.9697 48.0605H85.9697ZM82.4584 56.5146C80.1276 58.8454 77.3371 60 74.0303 60V62C77.866 62 81.1657 60.6357 83.8726 57.9288L82.4584 56.5146ZM74.0303 36.709C70.9021 36.709 68.2062 37.8229 65.9994 40.0297L67.4137 41.4439C69.244 39.6136 71.4306 38.709 74.0303 38.709V36.709ZM65.9994 40.0297C63.7927 42.2365 62.6787 44.9324 62.6787 48.0605H64.6787C64.6787 45.4609 65.5833 43.2743 67.4137 41.4439L65.9994 40.0297ZM62.6787 48.0605C62.6787 51.1887 63.7927 53.8846 65.9994 56.0914L67.4137 54.6772C65.5833 52.8468 64.6787 50.6602 64.6787 48.0605H62.6787ZM65.9994 56.0914C68.2062 58.2982 70.9021 59.4121 74.0303 59.4121V57.4121C71.4306 57.4121 69.244 56.5075 67.4137 54.6772L65.9994 56.0914ZM74.0303 59.4121C77.1585 59.4121 79.8543 58.2982 82.0611 56.0914L80.6469 54.6772C78.8166 56.5075 76.63 57.4121 74.0303 57.4121V59.4121ZM82.0611 56.0914C84.2679 53.8846 85.3818 51.1887 85.3818 48.0605H83.3818C83.3818 50.6602 82.4772 52.8468 80.6469 54.6772L82.0611 56.0914ZM85.3818 48.0605C85.3818 44.9324 84.2679 42.2365 82.0611 40.0297L80.6469 41.4439C82.4772 43.2743 83.3818 45.4609 83.3818 48.0605H85.3818ZM82.0611 40.0297C79.8543 37.8229 77.1585 36.709 74.0303 36.709V38.709C76.63 38.709 78.8166 39.6136 80.6469 41.4439L82.0611 40.0297ZM95.0543 35.1211L95.9736 34.7274L95.7139 34.1211H95.0543V35.1211ZM104.785 57.8428L103.866 58.2364L104.785 60.383L105.704 58.2364L104.785 57.8428ZM114.515 35.1211V34.1211H113.856L113.596 34.7274L114.515 35.1211ZM117.336 35.1211L118.255 35.5153L118.853 34.1211H117.336V35.1211ZM106.234 61V62H106.893L107.153 61.3943L106.234 61ZM103.31 61L102.391 61.3943L102.651 62H103.31V61ZM92.2076 35.1211V34.1211H90.6905L91.2886 35.5153L92.2076 35.1211ZM94.135 35.5148L103.866 58.2364L105.704 57.4491L95.9736 34.7274L94.135 35.5148ZM105.704 58.2364L115.434 35.5148L113.596 34.7274L103.866 57.4491L105.704 58.2364ZM114.515 36.1211H117.336V34.1211H114.515V36.1211ZM116.417 34.7268L105.315 60.6057L107.153 61.3943L118.255 35.5153L116.417 34.7268ZM106.234 60H103.31V62H106.234V60ZM104.229 60.6057L93.1266 34.7268L91.2886 35.5153L102.391 61.3943L104.229 60.6057ZM92.2076 36.1211H95.0543V34.1211H92.2076V36.1211ZM146.615 54.5303H147.615L145.65 54.2703L146.615 54.5303ZM145.425 57.1958L146.132 57.9029L145.425 57.1958ZM127.103 57.2217L126.393 57.9264L126.398 57.9312L127.103 57.2217ZM127.103 38.9253L126.396 38.2182L127.103 38.9253ZM145.425 38.8994L146.146 38.2063L146.138 38.198L146.13 38.1899L145.425 38.8994ZM146.615 41.5908L145.65 41.8508L147.615 41.5908H146.615ZM146.615 35.1211V34.1211H145.615V35.1211H146.615ZM149.203 35.1211H150.203V34.1211H149.203V35.1211ZM149.203 61V62H150.203V61H149.203ZM146.615 61H145.615V62H146.615V61ZM136.264 36.709C133.136 36.709 130.44 37.8229 128.233 40.0297L129.647 41.4439C131.478 39.6136 133.664 38.709 136.264 38.709V36.709ZM128.233 40.0297C126.026 42.2365 124.912 44.9324 124.912 48.0605H126.912C126.912 45.4609 127.817 43.2743 129.647 41.4439L128.233 40.0297ZM124.912 48.0605C124.912 51.1887 126.026 53.8846 128.233 56.0914L129.647 54.6772C127.817 52.8468 126.912 50.6602 126.912 48.0605H124.912ZM128.233 56.0914C130.44 58.2982 133.136 59.4121 136.264 59.4121V57.4121C133.664 57.4121 131.478 56.5075 129.647 54.6772L128.233 56.0914ZM136.264 59.4121C139.392 59.4121 142.088 58.2982 144.295 56.0914L142.88 54.6772C141.05 56.5075 138.864 57.4121 136.264 57.4121V59.4121ZM144.295 56.0914C146.501 53.8846 147.615 51.1887 147.615 48.0605H145.615C145.615 50.6602 144.711 52.8468 142.88 54.6772L144.295 56.0914ZM147.615 48.0605C147.615 44.9324 146.501 42.2365 144.295 40.0297L142.88 41.4439C144.711 43.2743 145.615 45.4609 145.615 48.0605H147.615ZM144.295 40.0297C142.088 37.8229 139.392 36.709 136.264 36.709V38.709C138.864 38.709 141.05 39.6136 142.88 41.4439L144.295 40.0297ZM145.65 54.2703C145.288 55.6125 144.944 56.2629 144.718 56.4887L146.132 57.9029C146.769 57.2661 147.218 56.1395 147.581 54.7902L145.65 54.2703ZM144.718 56.4887C142.368 58.8382 139.569 60 136.264 60V62C140.102 62 143.409 60.6257 146.132 57.9029L144.718 56.4887ZM136.264 60C132.957 60 130.156 58.8452 127.807 56.5122L126.398 57.9312C129.121 60.636 132.428 62 136.264 62V60ZM127.812 56.517C125.479 54.168 124.324 51.3675 124.324 48.0605H122.324C122.324 51.8961 123.688 55.2031 126.393 57.9264L127.812 56.517ZM124.324 48.0605C124.324 44.7537 125.479 41.9632 127.81 39.6324L126.396 38.2182C123.689 40.9251 122.324 44.2248 122.324 48.0605H124.324ZM127.81 39.6324C130.159 37.2829 132.959 36.1211 136.264 36.1211V34.1211C132.426 34.1211 129.118 35.4954 126.396 38.2182L127.81 39.6324ZM136.264 36.1211C139.571 36.1211 142.371 37.2759 144.72 39.6089L146.13 38.1899C143.406 35.4851 140.099 34.1211 136.264 34.1211V36.1211ZM144.704 39.5925C144.943 39.8411 145.29 40.513 145.65 41.8508L147.581 41.3308C147.217 39.9773 146.769 38.8548 146.146 38.2063L144.704 39.5925ZM147.615 41.5908V35.1211H145.615V41.5908H147.615ZM146.615 36.1211H149.203V34.1211H146.615V36.1211ZM148.203 35.1211V61H150.203V35.1211H148.203ZM149.203 60H146.615V62H149.203V60ZM147.615 61V54.5303H145.615V61H147.615ZM154.441 61H153.441V62H154.441V61ZM157.029 61V62H158.029V61H157.029ZM157.029 58.4121H158.029V57.4121H157.029V58.4121ZM154.441 58.4121V57.4121H153.441V58.4121H154.441ZM154.441 62H157.029V60H154.441V62ZM158.029 61V58.4121H156.029V61H158.029ZM157.029 57.4121H154.441V59.4121H157.029V57.4121ZM153.441 58.4121V61H155.441V58.4121H153.441Z" fill="white"/>
<path d="M192.176 31.8862L193.987 30.0747C190.45 26.5379 186.18 24.7695 181.177 24.7695C176.174 24.7695 171.904 26.5379 168.367 30.0747C164.83 33.6115 163.062 37.8815 163.062 42.8848C163.062 47.888 164.83 52.158 168.367 55.6948C171.904 59.2316 176.174 61 181.177 61C186.18 61 190.45 59.2316 193.987 55.6948L192.176 53.8574C189.139 56.8939 185.473 58.4121 181.177 58.4121C176.881 58.4121 173.215 56.9025 170.179 53.8833C167.159 50.8468 165.65 47.1807 165.65 42.8848C165.65 38.5889 167.159 34.9313 170.179 31.9121C173.215 28.8757 176.881 27.3574 181.177 27.3574C185.473 27.3574 189.139 28.867 192.176 31.8862ZM212.294 37.709C209.43 37.709 206.989 38.7183 204.97 40.7368C202.952 42.7554 201.942 45.1966 201.942 48.0605C201.942 50.9245 202.952 53.3657 204.97 55.3843C206.989 57.4028 209.43 58.4121 212.294 58.4121C215.158 58.4121 217.599 57.4028 219.618 55.3843C221.636 53.3657 222.646 50.9245 222.646 48.0605C222.646 45.1966 221.636 42.7554 219.618 40.7368C217.599 38.7183 215.158 37.709 212.294 37.709ZM201.942 61H199.354V24.7695H201.942V41.5908C202.305 40.2451 202.71 39.348 203.159 38.8994C205.678 36.3805 208.723 35.1211 212.294 35.1211C215.865 35.1211 218.91 36.3892 221.429 38.9253C223.965 41.4442 225.233 44.4893 225.233 48.0605C225.233 51.6318 223.965 54.6855 221.429 57.2217C218.91 59.7406 215.865 61 212.294 61C208.723 61 205.678 59.7319 203.159 57.1958C202.71 56.7645 202.305 55.876 201.942 54.5303V61ZM243.411 37.709C240.547 37.709 238.106 38.7183 236.087 40.7368C234.068 42.7554 233.059 45.1966 233.059 48.0605C233.059 50.9245 234.068 53.3657 236.087 55.3843C238.106 57.4028 240.547 58.4121 243.411 58.4121C246.275 58.4121 248.716 57.4028 250.734 55.3843C252.753 53.3657 253.762 50.9245 253.762 48.0605C253.762 45.1966 252.753 42.7554 250.734 40.7368C248.716 38.7183 246.275 37.709 243.411 37.709ZM253.762 54.5303C253.4 55.876 253.003 56.7645 252.572 57.1958C250.036 59.7319 246.982 61 243.411 61C239.839 61 236.786 59.7406 234.25 57.2217C231.731 54.6855 230.471 51.6318 230.471 48.0605C230.471 44.4893 231.731 41.4442 234.25 38.9253C236.786 36.3892 239.839 35.1211 243.411 35.1211C246.982 35.1211 250.036 36.3805 252.572 38.8994C253.003 39.348 253.4 40.2451 253.762 41.5908V35.1211H256.35V61H253.762V54.5303Z" fill="#006DF0"/>
<path d="M192.176 31.8862L191.471 32.5953L192.178 33.2984L192.883 32.5933L192.176 31.8862ZM193.987 30.0747L194.694 30.7818L195.401 30.0747L194.694 29.3676L193.987 30.0747ZM193.987 55.6948L194.694 56.4019L195.396 55.6998L194.699 54.9928L193.987 55.6948ZM192.176 53.8574L192.888 53.1553L192.181 52.4382L191.469 53.1503L192.176 53.8574ZM170.179 53.8833L169.469 54.5884L169.474 54.5924L170.179 53.8833ZM170.179 31.9121L169.472 31.205L170.179 31.9121ZM192.883 32.5933L194.694 30.7818L193.28 29.3676L191.469 31.1791L192.883 32.5933ZM194.694 29.3676C190.97 25.6432 186.446 23.7695 181.177 23.7695V25.7695C185.915 25.7695 189.931 27.4326 193.28 30.7818L194.694 29.3676ZM181.177 23.7695C175.909 23.7695 171.384 25.6432 167.66 29.3676L169.074 30.7818C172.423 27.4326 176.439 25.7695 181.177 25.7695V23.7695ZM167.66 29.3676C163.936 33.092 162.062 37.6164 162.062 42.8848H164.062C164.062 38.1466 165.725 34.131 169.074 30.7818L167.66 29.3676ZM162.062 42.8848C162.062 48.1531 163.936 52.6775 167.66 56.4019L169.074 54.9877C165.725 51.6385 164.062 47.6229 164.062 42.8848H162.062ZM167.66 56.4019C171.384 60.1263 175.909 62 181.177 62V60C176.439 60 172.423 58.3369 169.074 54.9877L167.66 56.4019ZM181.177 62C186.446 62 190.97 60.1263 194.694 56.4019L193.28 54.9877C189.931 58.3369 185.915 60 181.177 60V62ZM194.699 54.9928L192.888 53.1553L191.464 54.5595L193.275 56.3969L194.699 54.9928ZM191.469 53.1503C188.62 55.9992 185.208 57.4121 181.177 57.4121V59.4121C185.738 59.4121 189.659 57.7886 192.883 54.5645L191.469 53.1503ZM181.177 57.4121C177.145 57.4121 173.732 56.0064 170.884 53.1742L169.474 54.5924C172.698 57.7986 176.618 59.4121 181.177 59.4121V57.4121ZM170.888 53.1782C168.056 50.3298 166.65 46.9174 166.65 42.8848H164.65C164.65 47.4439 166.263 51.3639 169.469 54.5884L170.888 53.1782ZM166.65 42.8848C166.65 38.8523 168.055 35.4496 170.886 32.6192L169.472 31.205C166.263 34.413 164.65 38.3255 164.65 42.8848H166.65ZM170.886 32.6192C173.735 29.7704 177.146 28.3574 181.177 28.3574V26.3574C176.616 26.3574 172.696 27.9809 169.472 31.205L170.886 32.6192ZM181.177 28.3574C185.21 28.3574 188.622 29.7631 191.471 32.5953L192.881 31.1771C189.656 27.9709 185.736 26.3574 181.177 26.3574V28.3574ZM201.942 61V62H202.942V61H201.942ZM199.354 61H198.354V62H199.354V61ZM199.354 24.7695V23.7695H198.354V24.7695H199.354ZM201.942 24.7695H202.942V23.7695H201.942V24.7695ZM201.942 41.5908H200.942L202.908 41.8508L201.942 41.5908ZM203.159 38.8994L202.452 38.1923L203.159 38.8994ZM221.429 38.9253L220.72 39.63L220.725 39.6348L221.429 38.9253ZM203.159 57.1958L203.868 56.4911L203.86 56.4829L203.852 56.475L203.159 57.1958ZM201.942 54.5303L202.908 54.2703L200.942 54.5303H201.942ZM212.294 36.709C209.166 36.709 206.47 37.8229 204.263 40.0297L205.677 41.4439C207.508 39.6136 209.694 38.709 212.294 38.709V36.709ZM204.263 40.0297C202.056 42.2365 200.942 44.9324 200.942 48.0605H202.942C202.942 45.4609 203.847 43.2743 205.677 41.4439L204.263 40.0297ZM200.942 48.0605C200.942 51.1887 202.056 53.8846 204.263 56.0914L205.677 54.6772C203.847 52.8468 202.942 50.6602 202.942 48.0605H200.942ZM204.263 56.0914C206.47 58.2982 209.166 59.4121 212.294 59.4121V57.4121C209.694 57.4121 207.508 56.5075 205.677 54.6772L204.263 56.0914ZM212.294 59.4121C215.422 59.4121 218.118 58.2982 220.325 56.0914L218.911 54.6772C217.08 56.5075 214.894 57.4121 212.294 57.4121V59.4121ZM220.325 56.0914C222.532 53.8846 223.646 51.1887 223.646 48.0605H221.646C221.646 50.6602 220.741 52.8468 218.911 54.6772L220.325 56.0914ZM223.646 48.0605C223.646 44.9324 222.532 42.2365 220.325 40.0297L218.911 41.4439C220.741 43.2743 221.646 45.4609 221.646 48.0605H223.646ZM220.325 40.0297C218.118 37.8229 215.422 36.709 212.294 36.709V38.709C214.894 38.709 217.08 39.6136 218.911 41.4439L220.325 40.0297ZM201.942 60H199.354V62H201.942V60ZM200.354 61V24.7695H198.354V61H200.354ZM199.354 25.7695H201.942V23.7695H199.354V25.7695ZM200.942 24.7695V41.5908H202.942V24.7695H200.942ZM202.908 41.8508C203.267 40.5167 203.62 39.8522 203.866 39.6065L202.452 38.1923C201.8 38.8437 201.342 39.9735 200.977 41.3308L202.908 41.8508ZM203.866 39.6065C206.197 37.2757 208.987 36.1211 212.294 36.1211V34.1211C208.458 34.1211 205.159 35.4854 202.452 38.1923L203.866 39.6065ZM212.294 36.1211C215.599 36.1211 218.388 37.2827 220.72 39.63L222.139 38.2206C219.432 35.4956 216.132 34.1211 212.294 34.1211V36.1211ZM220.725 39.6348C223.072 41.9661 224.233 44.7559 224.233 48.0605H226.233C226.233 44.2226 224.859 40.9222 222.134 38.2158L220.725 39.6348ZM224.233 48.0605C224.233 51.3653 223.072 54.1651 220.722 56.5146L222.136 57.9288C224.859 55.206 226.233 51.8983 226.233 48.0605H224.233ZM220.722 56.5146C218.391 58.8454 215.601 60 212.294 60V62C216.13 62 219.429 60.6357 222.136 57.9288L220.722 56.5146ZM212.294 60C208.989 60 206.2 58.8384 203.868 56.4911L202.449 57.9005C205.156 60.6254 208.456 62 212.294 62V60ZM203.852 56.475C203.62 56.2517 203.268 55.6087 202.908 54.2703L200.977 54.7902C201.341 56.1433 201.801 57.2773 202.466 57.9166L203.852 56.475ZM200.942 54.5303V61H202.942V54.5303H200.942ZM253.762 54.5303H254.762L252.797 54.2703L253.762 54.5303ZM252.572 57.1958L253.279 57.9029L252.572 57.1958ZM234.25 57.2217L233.54 57.9264L233.545 57.9312L234.25 57.2217ZM234.25 38.9253L233.543 38.2182L234.25 38.9253ZM252.572 38.8994L253.293 38.2063L253.285 38.198L253.277 38.1899L252.572 38.8994ZM253.762 41.5908L252.797 41.8508L254.762 41.5908H253.762ZM253.762 35.1211V34.1211H252.762V35.1211H253.762ZM256.35 35.1211H257.35V34.1211H256.35V35.1211ZM256.35 61V62H257.35V61H256.35ZM253.762 61H252.762V62H253.762V61ZM243.411 36.709C240.283 36.709 237.587 37.8229 235.38 40.0297L236.794 41.4439C238.624 39.6136 240.811 38.709 243.411 38.709V36.709ZM235.38 40.0297C233.173 42.2365 232.059 44.9324 232.059 48.0605H234.059C234.059 45.4609 234.964 43.2743 236.794 41.4439L235.38 40.0297ZM232.059 48.0605C232.059 51.1887 233.173 53.8846 235.38 56.0914L236.794 54.6772C234.964 52.8468 234.059 50.6602 234.059 48.0605H232.059ZM235.38 56.0914C237.587 58.2982 240.283 59.4121 243.411 59.4121V57.4121C240.811 57.4121 238.624 56.5075 236.794 54.6772L235.38 56.0914ZM243.411 59.4121C246.539 59.4121 249.235 58.2982 251.442 56.0914L250.027 54.6772C248.197 56.5075 246.01 57.4121 243.411 57.4121V59.4121ZM251.442 56.0914C253.648 53.8846 254.762 51.1887 254.762 48.0605H252.762C252.762 50.6602 251.858 52.8468 250.027 54.6772L251.442 56.0914ZM254.762 48.0605C254.762 44.9324 253.648 42.2365 251.442 40.0297L250.027 41.4439C251.858 43.2743 252.762 45.4609 252.762 48.0605H254.762ZM251.442 40.0297C249.235 37.8229 246.539 36.709 243.411 36.709V38.709C246.01 38.709 248.197 39.6136 250.027 41.4439L251.442 40.0297ZM252.797 54.2703C252.435 55.6125 252.091 56.2629 251.865 56.4887L253.279 57.9029C253.916 57.2661 254.365 56.1395 254.728 54.7902L252.797 54.2703ZM251.865 56.4887C249.515 58.8382 246.716 60 243.411 60V62C247.249 62 250.556 60.6257 253.279 57.9029L251.865 56.4887ZM243.411 60C240.104 60 237.303 58.8452 234.954 56.5122L233.545 57.9312C236.268 60.636 239.575 62 243.411 62V60ZM234.959 56.517C232.626 54.168 231.471 51.3675 231.471 48.0605H229.471C229.471 51.8961 230.835 55.2031 233.54 57.9264L234.959 56.517ZM231.471 48.0605C231.471 44.7537 232.626 41.9632 234.957 39.6324L233.543 38.2182C230.836 40.9251 229.471 44.2248 229.471 48.0605H231.471ZM234.957 39.6324C237.306 37.2829 240.106 36.1211 243.411 36.1211V34.1211C239.573 34.1211 236.265 35.4954 233.543 38.2182L234.957 39.6324ZM243.411 36.1211C246.718 36.1211 249.518 37.2759 251.867 39.6089L253.277 38.1899C250.553 35.4851 247.246 34.1211 243.411 34.1211V36.1211ZM251.851 39.5925C252.09 39.8411 252.437 40.513 252.797 41.8508L254.728 41.3308C254.363 39.9773 253.916 38.8548 253.293 38.2063L251.851 39.5925ZM254.762 41.5908V35.1211H252.762V41.5908H254.762ZM253.762 36.1211H256.35V34.1211H253.762V36.1211ZM255.35 35.1211V61H257.35V35.1211H255.35ZM256.35 60H253.762V62H256.35V60ZM254.762 61V54.5303H252.762V61H254.762Z" fill="#006DF0"/>
</svg>
